<?xml version="1.0" standalone="no"?>
<!DOCTYPE svg PUBLIC "-//W3C//DTD SVG 20010904//EN"
 "http://www.w3.org/TR/2001/REC-SVG-20010904/DTD/svg10.dtd">
<svg version="1.0" xmlns="http://www.w3.org/2000/svg"
 width="224.000000pt" height="234.000000pt" viewBox="0 0 224.000000 234.000000"
 preserveAspectRatio="xMidYMid meet">

<g transform="translate(0.000000,234.000000) scale(0.100000,-0.100000)"
fill="#000000" stroke="none">
<path d="M0 1170 l0 -1170 1120 0 1120 0 0 1170 0 1170 -1120 0 -1120 0 0
-1170z m785 629 c117 -21 230 -95 286 -185 17 -29 26 -34 58 -34 53 0 147 -26
203 -57 59 -32 162 -139 178 -185 12 -32 14 -33 74 -34 119 -2 234 -70 288
-170 99 -184 25 -397 -168 -486 -49 -23 -52 -23 -509 -23 -513 0 -494 -2 -575
71 -65 59 -85 105 -85 199 l0 80 -60 40 c-280 188 -252 604 52 747 92 44 165
54 258 37z"/>
<path d="M635 1657 c-95 -32 -148 -79 -189 -167 -52 -112 -29 -229 64 -322 70
-69 94 -77 142 -46 32 21 36 28 42 83 12 118 102 254 208 314 l48 27 -38 36
c-75 73 -190 103 -277 75z"/>
<path d="M1013 1419 c-64 -25 -129 -88 -161 -158 -21 -46 -24 -63 -20 -137 l4
-84 -35 -6 c-83 -15 -131 -66 -131 -137 0 -50 24 -90 70 -116 37 -20 50 -21
446 -21 269 0 423 4 449 11 55 15 120 82 135 138 32 121 -50 241 -178 258 -23
3 -59 -3 -97 -16 -32 -12 -62 -21 -66 -21 -4 0 -10 20 -13 44 -10 64 -61 161
-104 196 -82 67 -201 87 -299 49z"/>
</g>
</svg>
